<svg width="800" height="300" viewBox="0 0 800 300" fill="none" xmlns="http://www.w3.org/2000/svg">
<ellipse cx="181" cy="142.5" rx="88" ry="90.5" fill="#64B5F6" fill-opacity="0.5"/>
<path d="M213.817 229.975C166.059 222.05 111.031 198.572 91.0709 181.243C65.7089 159.225 70.6111 143.239 94.9215 118.1C115.695 96.6198 148.732 69.4942 184.815 43.453C225.246 14.2744 241.271 55.7584 248.199 134.673C251.426 171.429 262.472 238.049 213.817 229.975Z" fill="#42A5F5" fill-opacity="0.5"/>
<path d="M188.022 240.106C152.781 233.04 101.644 172.874 89.4745 147.761C75.5178 118.961 94.3784 106.056 104.844 97.842C123.15 83.473 192.21 46.7191 226.25 51.8157C260.55 56.9514 266.504 129.613 257.544 161.923C247.872 196.799 225.751 247.672 188.022 240.106Z" fill="url(#paint0_linear)" fill-opacity="0.6"/>
<path d="M344.48 204.44C337.472 204.44 331.28 203.48 325.904 201.56C320.528 199.544 315.392 196.328 310.496 191.912C308.48 190.184 307.472 188.216 307.472 186.008C307.472 184.28 308.144 182.744 309.488 181.4C310.832 179.96 312.416 179.24 314.24 179.24C315.872 179.24 317.264 179.768 318.416 180.824C322.256 184.376 326.192 187.016 330.224 188.744C334.352 190.376 339.008 191.192 344.192 191.192C350.24 191.192 355.328 189.8 359.456 187.016C363.68 184.232 365.792 180.728 365.792 176.504C365.696 171.512 363.584 167.672 359.456 164.984C355.424 162.2 349.232 159.896 340.88 158.072C330.992 156.056 323.36 152.744 317.984 148.136C312.704 143.528 310.064 137.144 310.064 128.984C310.064 123.32 311.552 118.376 314.528 114.152C317.504 109.832 321.632 106.52 326.912 104.216C332.192 101.912 338.144 100.76 344.768 100.76C350.72 100.76 356.336 101.72 361.616 103.64C366.896 105.56 371.168 108.104 374.432 111.272C376.64 113.192 377.744 115.256 377.744 117.464C377.744 119.192 377.072 120.728 375.728 122.072C374.48 123.416 372.944 124.088 371.12 124.088C369.776 124.088 368.672 123.704 367.808 122.936C365.312 120.44 361.856 118.328 357.44 116.6C353.024 114.872 348.8 114.008 344.768 114.008C338.336 114.008 333.2 115.352 329.36 118.04C325.616 120.632 323.744 124.088 323.744 128.408C323.744 133.112 325.616 136.712 329.36 139.208C333.2 141.704 338.864 143.816 346.352 145.544C353.84 147.176 359.936 149.096 364.64 151.304C369.44 153.512 373.136 156.584 375.728 160.52C378.32 164.456 379.616 169.592 379.616 175.928C379.616 181.496 378.032 186.44 374.864 190.76C371.792 195.08 367.568 198.44 362.192 200.84C356.816 203.24 350.912 204.44 344.48 204.44ZM485.317 102.056C487.237 102.152 488.869 102.872 490.213 104.216C491.557 105.464 492.229 107.048 492.229 108.968V196.088C492.229 198.008 491.557 199.64 490.213 200.984C488.965 202.328 487.285 203 485.173 203C483.061 203 481.333 202.376 479.989 201.128C478.645 199.784 477.973 198.104 477.973 196.088V129.416L450.037 171.752C449.365 172.616 448.501 173.336 447.445 173.912C446.485 174.488 445.477 174.728 444.421 174.632C443.461 174.728 442.453 174.488 441.397 173.912C440.437 173.336 439.621 172.616 438.949 171.752L410.869 128.12V196.088C410.869 198.104 410.245 199.784 408.997 201.128C407.845 202.376 406.261 203 404.245 203C402.325 203 400.741 202.376 399.493 201.128C398.341 199.784 397.765 198.104 397.765 196.088V108.968C397.765 107.144 398.437 105.56 399.781 104.216C401.125 102.776 402.805 102.056 404.82 102.056C405.973 102.056 407.077 102.344 408.133 102.92C409.285 103.496 410.197 104.264 410.869 105.224L444.997 156.92L479.557 105.224C481.093 103.112 483.013 102.056 485.317 102.056ZM607.755 152.6C607.755 162.296 605.643 171.08 601.419 178.952C597.291 186.824 591.531 193.064 584.139 197.672C576.747 202.184 568.395 204.44 559.083 204.44C549.771 204.44 541.419 202.184 534.027 197.672C526.635 193.064 520.827 186.824 516.603 178.952C512.475 171.08 510.411 162.296 510.411 152.6C510.411 142.904 512.475 134.12 516.603 126.248C520.827 118.376 526.635 112.184 534.027 107.672C541.419 103.064 549.771 100.76 559.083 100.76C568.395 100.76 576.747 103.064 584.139 107.672C591.531 112.184 597.291 118.376 601.419 126.248C605.643 134.12 607.755 142.904 607.755 152.6ZM592.923 152.6C592.923 145.4 591.483 138.92 588.603 133.16C585.723 127.304 581.691 122.744 576.507 119.48C571.419 116.12 565.611 114.44 559.083 114.44C552.555 114.44 546.699 116.072 541.515 119.336C536.427 122.6 532.443 127.16 529.563 133.016C526.683 138.776 525.243 145.304 525.243 152.6C525.243 159.8 526.683 166.328 529.563 172.184C532.443 177.944 536.427 182.504 541.515 185.864C546.699 189.128 552.555 190.76 559.083 190.76C565.611 190.76 571.419 189.128 576.507 185.864C581.691 182.504 585.723 177.944 588.603 172.184C591.483 166.328 592.923 159.8 592.923 152.6ZM693.502 192.632C694.366 193.784 694.798 195.176 694.798 196.808C694.798 198.824 694.078 200.456 692.638 201.704C691.294 202.952 689.758 203.576 688.03 203.576C685.63 203.576 683.758 202.616 682.414 200.696L654.478 163.256L627.118 200.552C625.678 202.568 623.806 203.576 621.502 203.576C619.774 203.576 618.286 203 617.038 201.848C615.886 200.6 615.31 199.208 615.31 197.672C615.31 196.04 615.886 194.456 617.038 192.92L646.558 152.744L616.894 112.856C615.934 111.608 615.454 110.216 615.454 108.68C615.454 106.76 616.126 105.128 617.47 103.784C618.91 102.44 620.542 101.768 622.366 101.768C623.422 101.768 624.43 102.008 625.39 102.488C626.446 102.968 627.31 103.688 627.982 104.648L655.63 141.8L682.99 105.08C684.622 102.968 686.446 101.912 688.462 101.912C690.19 101.912 691.678 102.584 692.926 103.928C694.27 105.176 694.942 106.616 694.942 108.248C694.942 109.688 694.462 111.08 693.502 112.424L663.55 152.456L693.502 192.632Z" fill="#42A5F5"/>
<defs>
<linearGradient id="paint0_linear" x1="128.5" y1="199.5" x2="256.787" y2="64.1676" gradientUnits="userSpaceOnUse">
<stop stop-color="#D32F2F"/>
<stop offset="1" stop-color="#1976D2"/>
</linearGradient>
</defs>
</svg>
